<svg width="297" height="84" viewBox="0 0 297 84" fill="none" xmlns="http://www.w3.org/2000/svg">
<path fill-rule="evenodd" clip-rule="evenodd" d="M249.956 53.2019V0H271.325C275.064 0 278.497 0.601637 281.639 1.80491C284.781 3.00819 287.486 4.72715 289.756 6.97613C292.025 9.2251 293.8 11.9468 295.08 15.1412C296.345 18.3499 296.985 21.9741 296.985 26.0423C296.985 30.1105 296.418 33.8063 295.283 37.1439C294.149 40.4816 292.52 43.3465 290.41 45.7101C288.301 48.088 285.784 49.9359 282.861 51.2394C279.937 52.543 276.693 53.2019 273.114 53.2019H249.956ZM233.518 53.2019L214.055 21.6016V43.1889L201.297 44.1774V0.0859482H215.917L233.3 29.7667V0.0859482H246.29V53.2019H233.504H233.518ZM183.754 0.0859482H197.646V44.4638L183.754 45.5525V0.0859482ZM166.123 0.0859482H180.015V45.839L158.69 47.5007L141.743 20.7278V48.8186L122.847 50.294C122.629 50.3083 122.41 50.337 122.207 50.3799L89.6077 0.0859482H105.289L127.88 36.5709V0.0859482H143.561L166.152 36.5709V0.0859482H166.123ZM44.5856 14.8834C44.5856 14.7544 44.5856 14.6398 44.5856 14.5252C44.5856 12.3909 44.222 10.4284 43.4946 8.62346C42.7673 6.83288 41.6908 5.30014 40.2798 4.01091C38.8688 2.72169 37.1523 1.73329 35.1157 1.0457C33.0937 0.358117 30.7372 0 28.0897 0H0V53.2019H13.4848V32.646H24.8603C26.6496 32.646 27.9297 33.0471 28.7152 33.8492C29.5007 34.6514 29.8935 36.2988 29.8935 38.8056V53.2019H43.5383V37.9175C43.5383 37.7885 43.5383 37.6739 43.5383 37.5593L32.5555 26.7442L44.6002 14.8834H44.5856ZM30.6208 21.5587C29.6462 22.5471 28.0751 23.0341 25.9077 23.0341H13.4848V11.3595H25.9077C28.0751 11.3595 29.6462 11.8322 30.6208 12.792C31.5954 13.7517 32.0755 15.1699 32.0755 17.0321C32.0755 19.0662 31.5809 20.5703 30.6208 21.5587ZM270.278 42.0716C272.605 42.0716 274.569 41.7565 276.169 41.1119C277.769 40.4673 279.049 39.4932 280.024 38.1896C280.999 36.8861 281.697 35.2244 282.133 33.2333C282.57 31.2278 282.788 28.8499 282.788 26.0709C282.788 23.292 282.57 20.9713 282.133 19.0662C281.697 17.1753 280.984 15.6569 279.98 14.5109C278.977 13.3649 277.609 12.5484 275.878 12.0757C274.147 11.5887 271.98 11.3595 269.376 11.3595H263.441V42.0716H270.263H270.278Z" fill="white"/>
<path fill-rule="evenodd" clip-rule="evenodd" d="M52.4113 26.7442L79.4827 0.0859375H62.0558L34.9844 26.7442L62.0558 53.4024H79.4827L52.4113 26.7442ZM78.2026 26.7442L105.274 0.0859375H87.8471L60.7757 26.7442L87.8471 53.4024H105.274L78.2026 26.7442Z" fill="#161514"/>
<path fill-rule="evenodd" clip-rule="evenodd" d="M221.953 72.4831C221.909 72.5548 221.851 72.6407 221.793 72.7267C221.749 72.8126 221.706 72.8842 221.648 72.9702C221.589 73.0561 221.531 73.1421 221.488 73.1994C221.444 73.271 221.4 73.357 221.342 73.4429C221.299 73.5145 221.24 73.5861 221.197 73.6578C220.862 74.2737 220.382 74.8037 219.8 75.2048C219.218 75.5916 218.535 75.8494 217.822 75.9067L119.122 83.5991C118.061 83.6851 117.1 83.3269 116.402 82.6966C115.704 82.0664 115.268 81.1496 115.268 80.1039V63.1005C115.268 62.6707 115.34 62.2553 115.486 61.8542C115.617 61.4675 115.806 61.1093 116.039 60.7799C116.082 60.6939 116.14 60.608 116.184 60.522C116.228 60.4504 116.271 60.3788 116.329 60.3072C116.373 60.2212 116.431 60.1353 116.475 60.0493C116.533 59.9634 116.577 59.8917 116.635 59.8058C116.679 59.7198 116.722 59.6482 116.766 59.5766C116.81 59.505 116.853 59.4333 116.911 59.3617C116.955 59.2758 117.013 59.1898 117.057 59.1039C117.1 59.0323 117.144 58.9606 117.202 58.889C117.246 58.8174 117.29 58.7314 117.348 58.6312C117.406 58.5452 117.464 58.4593 117.508 58.402C117.551 58.3303 117.595 58.2444 117.653 58.1585C117.711 58.0725 117.77 57.9866 117.813 57.9293C117.857 57.8576 117.901 57.7717 117.959 57.6857C118.002 57.6141 118.061 57.5282 118.119 57.4565C118.162 57.3706 118.206 57.299 118.264 57.213C118.308 57.1271 118.366 57.0554 118.424 56.9838C118.468 56.9122 118.511 56.8263 118.57 56.7403C118.628 56.6544 118.672 56.5684 118.73 56.4968C118.773 56.4108 118.817 56.3392 118.861 56.2676C118.904 56.196 118.962 56.11 119.021 56.0384C119.064 55.9524 119.108 55.8808 119.166 55.7949C119.21 55.7233 119.253 55.6516 119.312 55.58C119.355 55.5084 119.399 55.4224 119.457 55.3222C119.515 55.2362 119.559 55.1646 119.602 55.093C119.937 54.477 120.417 53.947 120.999 53.5602C121.581 53.1735 122.265 52.9156 122.977 52.8583L221.677 45.166C222.739 45.08 223.699 45.4381 224.397 46.0684C225.095 46.6987 225.532 47.6155 225.532 48.6612V65.6646C225.532 66.0943 225.459 66.5097 225.313 66.9108C225.182 67.3119 224.979 67.67 224.746 67.9995C224.702 68.0711 224.659 68.1571 224.601 68.243C224.542 68.329 224.499 68.4006 224.455 68.4722C224.411 68.5582 224.368 68.6441 224.31 68.7158C224.266 68.7874 224.208 68.859 224.164 68.9306C224.121 69.0166 224.062 69.1025 224.019 69.1741C223.961 69.2601 223.917 69.3317 223.859 69.4177C223.815 69.5036 223.771 69.5752 223.728 69.6612C223.684 69.7328 223.641 69.8044 223.568 69.8904C223.524 69.9763 223.48 70.0479 223.422 70.1339C223.379 70.2055 223.32 70.2771 223.277 70.3488C223.233 70.4204 223.19 70.5063 223.117 70.6066C223.117 70.6066 223.03 70.7499 222.971 70.8215C222.928 70.8931 222.884 70.979 222.811 71.0793C222.753 71.1653 222.695 71.2512 222.651 71.3228C222.608 71.4088 222.564 71.4804 222.52 71.552C222.477 71.6237 222.419 71.7096 222.36 71.7812C222.317 71.8672 222.259 71.9531 222.215 72.0248C222.171 72.0964 222.113 72.1823 222.055 72.2539C222.011 72.3399 221.968 72.4115 221.909 72.4975" fill="#161514"/>
<path d="M221.546 72.3826L221.604 72.2823C221.721 72.0818 221.837 71.9099 221.968 71.7093L222.026 71.5947L222.055 71.5374C222.157 71.3942 222.23 71.2796 222.317 71.122C222.433 70.9358 222.55 70.7639 222.666 70.5777L222.739 70.4774C222.913 70.2052 223.088 69.9187 223.263 69.6322L223.335 69.5176C223.408 69.403 223.481 69.2884 223.553 69.1595L223.626 69.0592L223.757 68.8444L223.859 68.6725C223.961 68.5292 224.034 68.4146 224.121 68.2571L224.368 67.8846L224.455 67.727C224.557 67.5838 224.659 67.4262 224.746 67.2543C224.834 67.0968 224.906 66.9249 224.965 66.753C225.023 66.5811 225.081 66.3949 225.11 66.1943C225.139 66.0081 225.154 65.8219 225.154 65.6356V48.6322C225.154 48.1738 225.066 47.7441 224.892 47.3573C224.717 46.9562 224.455 46.6125 224.15 46.3116C223.83 46.0251 223.452 45.7959 223.03 45.667C222.623 45.5381 222.186 45.4808 221.721 45.5094L123.021 53.2018C122.701 53.2305 122.396 53.2878 122.105 53.388C121.799 53.4883 121.523 53.6315 121.261 53.8178C120.999 53.9897 120.767 54.2045 120.548 54.4337C120.345 54.6629 120.156 54.9208 120.01 55.1929C119.923 55.3219 119.85 55.4365 119.763 55.5654L119.705 55.6657C119.646 55.7516 119.588 55.8232 119.545 55.9092L119.472 56.0238L119.414 56.1384C119.341 56.253 119.254 56.3676 119.181 56.4965L119.123 56.6111C118.963 56.8546 118.803 57.1125 118.643 57.356C118.512 57.5852 118.352 57.8144 118.221 58.0436C118.134 58.1725 118.061 58.2871 117.974 58.416C117.814 58.6882 117.624 58.989 117.435 59.2468L117.363 59.3614L117.304 59.476C117.246 59.562 117.188 59.6336 117.13 59.7195C117.086 59.8055 117.028 59.8914 116.984 59.9774L116.839 60.1923C116.752 60.3355 116.693 60.4501 116.592 60.579L116.461 60.7796L116.402 60.8942L116.373 60.9515C116.272 61.0947 116.17 61.2523 116.082 61.4242C115.995 61.5818 115.922 61.7537 115.864 61.9255C115.806 62.0974 115.748 62.298 115.719 62.4842C115.69 62.6704 115.675 62.8567 115.675 63.0429V80.0463C115.675 80.5047 115.762 80.9344 115.937 81.3212C116.112 81.7223 116.373 82.0804 116.679 82.3669C116.999 82.6534 117.377 82.8826 117.799 83.0115C118.206 83.1404 118.643 83.1977 119.108 83.1691L217.808 75.4767C218.128 75.4481 218.433 75.3908 218.724 75.2905C219.029 75.1902 219.306 75.047 219.568 74.8607C219.83 74.6888 220.062 74.474 220.28 74.2448C220.484 74.0156 220.673 73.7577 220.819 73.4856C220.877 73.3996 220.921 73.328 220.979 73.2421L221.139 72.9842L221.212 72.8839L221.357 72.6547L221.415 72.5401L221.532 72.3826H221.546ZM222.302 72.6834L222.142 72.9126L222.084 73.0272C222.012 73.1561 221.924 73.2707 221.852 73.3996L221.793 73.4999C221.721 73.6145 221.648 73.7291 221.575 73.8437C221.401 74.1732 221.182 74.4883 220.921 74.7605C220.659 75.047 220.368 75.3048 220.048 75.5197C219.728 75.7346 219.364 75.9208 218.986 76.0497C218.622 76.1786 218.244 76.2646 217.851 76.2932L119.152 83.9856C118.57 84.0285 118.032 83.9569 117.523 83.7994C116.999 83.6275 116.533 83.3553 116.141 82.9972C115.748 82.6391 115.428 82.2093 115.21 81.708C115.006 81.2352 114.89 80.6909 114.89 80.1322V63.1288C114.89 62.8996 114.904 62.6704 114.948 62.4412C114.991 62.212 115.05 61.9828 115.122 61.7537C115.195 61.5388 115.282 61.3239 115.384 61.1377C115.486 60.9515 115.588 60.7652 115.719 60.5934L115.792 60.4788L115.952 60.2209L116.024 60.1206L116.17 59.8628L116.257 59.7195L116.33 59.6049L116.461 59.3758L116.606 59.1609L116.679 59.0463C116.752 58.9174 116.824 58.8028 116.912 58.6882C117.013 58.5163 117.115 58.3587 117.217 58.2011C117.29 58.0865 117.363 57.9576 117.435 57.843C117.566 57.6425 117.683 57.4419 117.814 57.2557L117.959 57.0122L118.119 56.7687C118.221 56.5968 118.308 56.4535 118.424 56.2816C118.497 56.1527 118.57 56.0381 118.643 55.9235L118.715 55.8232L118.861 55.5654L119.006 55.3505C119.108 55.1929 119.195 55.0354 119.312 54.8778C119.486 54.5483 119.719 54.2332 119.966 53.961C120.228 53.6745 120.519 53.4167 120.839 53.2018C121.159 52.9869 121.523 52.8007 121.901 52.6718C122.265 52.5429 122.643 52.4569 123.036 52.4283L221.735 44.7359C222.317 44.6929 222.855 44.7646 223.364 44.9221C223.888 45.094 224.354 45.3662 224.746 45.7243C225.139 46.0824 225.459 46.5122 225.677 47.0135C225.881 47.5006 225.997 48.0306 225.997 48.5893V65.5927C225.997 65.8219 225.983 66.0511 225.939 66.2803C225.896 66.5095 225.837 66.7386 225.765 66.9678C225.692 67.1827 225.605 67.3976 225.503 67.5981C225.401 67.7987 225.285 67.9849 225.154 68.1568C225.066 68.3144 224.965 68.4576 224.863 68.6152L224.79 68.7441L224.586 69.0736L224.572 69.1022L224.426 69.3457L224.339 69.4747L224.266 69.5893L224.208 69.6895L224.048 69.9474L223.975 70.0477C223.903 70.1766 223.83 70.2912 223.743 70.4201C223.612 70.6206 223.495 70.8069 223.364 71.0074C223.292 71.1363 223.204 71.2652 223.117 71.3942L223.059 71.4801C222.943 71.695 222.812 71.8955 222.681 72.0961L222.623 72.182L222.462 72.4112L222.317 72.6547L222.302 72.6834Z" fill="white"/>
<path d="M221.721 68.1428L123.036 75.8352C121.8 75.9354 120.811 75.0187 120.811 73.8154V56.812C120.811 55.5944 121.814 54.5343 123.036 54.4484L221.721 46.756C222.957 46.6558 223.947 47.5725 223.947 48.7758V65.7792C223.947 66.9968 222.943 68.0569 221.721 68.1428Z" fill="white"/>
<path d="M127.531 60.9516L124.694 61.1665L125.625 56.8118L132.39 56.2817V72.5689L127.516 72.9414V60.9516H127.531Z" fill="#161514"/>
<path d="M135.081 69.0593C134.528 67.8846 134.237 66.3805 134.237 64.2891C134.237 62.1977 134.514 60.6507 135.081 59.3758C136.187 56.7544 138.499 55.3505 141.685 55.107C144.871 54.8635 147.169 55.8949 148.26 58.3587C148.828 59.5333 149.104 61.0374 149.104 63.1288C149.104 65.2202 148.828 66.7673 148.26 68.0422C147.155 70.6636 144.871 72.0674 141.685 72.311C138.499 72.5545 136.187 71.5231 135.081 69.0736V69.0593ZM143.591 67.0108C143.853 66.4378 143.853 65.4924 143.853 63.5299C143.853 61.5674 143.853 60.622 143.591 60.092C143.285 59.476 142.674 59.1466 141.671 59.2325C140.638 59.3185 140.027 59.7339 139.721 60.3928C139.489 60.9658 139.46 61.9112 139.46 63.8737C139.46 65.8362 139.489 66.7816 139.721 67.3117C140.027 67.9276 140.638 68.2571 141.671 68.1711C142.674 68.0995 143.285 67.6698 143.591 67.0108Z" fill="#161514"/>
<path d="M156.712 58.6739L150.107 59.1896V54.9066L163.985 53.8179L156.726 70.6637L151.155 71.0935L156.697 58.6739H156.712Z" fill="#161514"/>
<path d="M161.614 68.2859C161.614 66.7675 162.662 65.7075 164.218 65.5929C165.716 65.4783 166.749 66.3664 166.749 67.8848C166.749 69.4033 165.716 70.4346 164.218 70.5492C162.691 70.6638 161.614 69.7614 161.614 68.2859Z" fill="#161514"/>
<path d="M183.624 60.2064C183.624 62.0973 183.318 63.7589 182.707 65.1484C181.558 67.7555 179.26 69.3599 175.841 69.6321C173.659 69.804 171.812 69.3169 170.575 68.2283C169.805 67.4977 169.266 66.5523 169.048 65.306L173.848 64.9336C173.936 65.2487 174.081 65.4636 174.27 65.6641C174.663 66.0079 175.201 66.1225 175.856 66.0652C177.02 65.9793 177.776 65.4063 178.212 64.4036C178.518 63.716 178.634 62.8422 178.634 61.8967C177.718 63.0284 176.249 63.7016 174.401 63.8449C171.972 64.0311 170.11 63.3006 169.295 61.5673C168.99 60.894 168.801 60.0345 168.801 59.0461C168.801 58.0577 168.99 57.1409 169.339 56.3531C170.372 54.0182 172.801 52.643 175.87 52.4138C179.478 52.1273 181.66 53.3449 182.751 55.7228C183.318 56.9261 183.595 58.4445 183.595 60.2207L183.624 60.2064ZM178.169 58.0864C178.169 57.6996 178.096 57.3272 177.965 57.0407C177.66 56.3674 177.005 56.0523 176.045 56.1239C175.129 56.1955 174.459 56.5966 174.154 57.3128C174.009 57.6423 173.95 58.0291 173.95 58.4302C173.95 58.8742 174.023 59.2323 174.154 59.5618C174.459 60.2064 175.143 60.4929 176.03 60.4356C176.947 60.364 177.645 59.9343 177.98 59.2037C178.125 58.8742 178.183 58.5161 178.183 58.0864H178.169Z" fill="#161514"/>
<path d="M189.457 51.8407L199.203 51.0815V55.0925L194.476 55.4649V57.6136L199.16 57.2555V61.1088L194.476 61.4669V67.7412L189.472 68.1279V51.8407H189.457Z" fill="#161514"/>
<path d="M200.76 50.9528L206.448 50.5088L210.404 58.8887L214.317 49.8928L220.034 49.4487V65.7359L215.306 66.1084V57.4133L211.466 66.4092L209.313 66.5811L205.473 58.1868V66.8819L200.76 67.2543V50.9671V50.9528Z" fill="#161514"/>
</svg>
