<svg width="579" height="579" viewBox="0 0 579 579" fill="none" xmlns="http://www.w3.org/2000/svg">
<circle cx="289.5" cy="289.5" r="289.5" transform="matrix(1 -8.74228e-08 -8.74228e-08 -1 0 579)" fill="#161514"/>
<path d="M406.364 510.635C285.052 573.829 135.48 526.716 72.2855 405.404C9.0911 284.092 56.2047 134.52 177.517 71.3253M270.248 498.855C384.103 508.829 484.53 424.126 494.557 309.665C504.584 195.204 420.414 94.3291 306.559 84.355M74.2738 217.366C117.554 98.5531 248.493 37.1528 366.734 80.2246C484.976 123.296 545.744 254.53 502.465 373.343M153.874 188.13C212.88 113.885 320.516 101.225 394.286 159.853C468.056 218.481 480.023 326.197 421.017 400.442M308.575 481.204C203.159 489.972 110.635 412.114 101.917 307.303C93.1996 202.493 171.589 110.419 277.006 101.651" stroke="#FCFEFE"/>
<path d="M289.5 166.5C357.431 166.5 412.5 221.569 412.5 289.5C412.5 357.431 357.431 412.5 289.5 412.5C221.569 412.5 166.5 357.431 166.5 289.5C166.5 221.569 221.569 166.5 289.5 166.5Z" stroke="#161514"/>
<circle cx="14.3099" cy="14.3099" r="13.8099" transform="matrix(1 -8.74228e-08 -8.74228e-08 -1 275.19 303.81)" stroke="#161514"/>
<ellipse cx="4.5" cy="4.5" rx="4.5" ry="4.5" transform="matrix(1 -8.74228e-08 -8.74228e-08 -1 285 294)" fill="#161514"/>
</svg>
